<svg width="20" height="20" viewBox="0 0 20 20" fill="none" xmlns="http://www.w3.org/2000/svg">
<path d="M18.3084 15.275C18.3084 15.575 18.2417 15.8833 18.1001 16.1833C17.9584 16.4833 17.7751 16.7666 17.5334 17.0333C17.1251 17.4833 16.6751 17.8083 16.1667 18.0166C15.6667 18.225 15.1251 18.3333 14.5417 18.3333C13.6917 18.3333 12.7834 18.1333 11.8251 17.725C10.8667 17.3166 9.90842 16.7666 8.95842 16.075C8.00008 15.375 7.09175 14.6 6.22508 13.7416C5.36675 12.875 4.59175 11.9666 3.90008 11.0166C3.21675 10.0666 2.66675 9.11663 2.26675 8.17496C1.86675 7.22496 1.66675 6.31663 1.66675 5.44996C1.66675 4.88329 1.76675 4.34163 1.96675 3.84163C2.16675 3.33329 2.48341 2.86663 2.92508 2.44996C3.45841 1.92496 4.04175 1.66663 4.65841 1.66663C4.89175 1.66663 5.12508 1.71663 5.33341 1.81663C5.55008 1.91663 5.74175 2.06663 5.89175 2.28329L7.82508 5.00829C7.97508 5.21663 8.08341 5.40829 8.15841 5.59163C8.23341 5.76663 8.27508 5.94163 8.27508 6.09996C8.27508 6.29996 8.21675 6.49996 8.10008 6.69163C7.99175 6.88329 7.83341 7.08329 7.63341 7.28329L7.00008 7.94163C6.90841 8.03329 6.86675 8.14163 6.86675 8.27496C6.86675 8.34163 6.87508 8.39996 6.89175 8.46663C6.91675 8.53329 6.94175 8.58329 6.95842 8.63329C7.10842 8.90829 7.36675 9.26663 7.73341 9.69996C8.10841 10.1333 8.50841 10.575 8.94175 11.0166C9.39175 11.4583 9.82508 11.8666 10.2667 12.2416C10.7001 12.6083 11.0584 12.8583 11.3417 13.0083C11.3834 13.025 11.4334 13.05 11.4917 13.075C11.5584 13.1 11.6251 13.1083 11.7001 13.1083C11.8417 13.1083 11.9501 13.0583 12.0417 12.9666L12.6751 12.3416C12.8834 12.1333 13.0834 11.975 13.2751 11.875C13.4667 11.7583 13.6584 11.7 13.8667 11.7C14.0251 11.7 14.1917 11.7333 14.3751 11.8083C14.5584 11.8833 14.7501 11.9916 14.9584 12.1333L17.7167 14.0916C17.9334 14.2416 18.0834 14.4166 18.1751 14.625C18.2584 14.8333 18.3084 15.0416 18.3084 15.275Z" stroke="#12143D" stroke-width="1.5" stroke-miterlimit="10"/>
</svg>
