<svg width="20" height="20" viewBox="0 0 20 20" fill="none" xmlns="http://www.w3.org/2000/svg">
<path d="M10.0001 17.9167C10.0001 18.1469 10.1869 18.3345 10.4167 18.3232C14.8255 18.1061 18.3334 14.4628 18.3334 10.0001C18.3334 5.39771 14.6025 1.66675 10.0001 1.66675C5.39771 1.66675 1.66675 5.39771 1.66675 10.0001C1.66675 13.8543 4.28332 17.0974 7.83702 18.0499C8.09147 18.1181 8.33342 17.9204 8.33342 17.657V11.6667H7.50008C7.03984 11.6667 6.66675 11.2937 6.66675 10.8334C6.66675 10.3732 7.03984 10.0001 7.50008 10.0001H8.33342V8.33342C8.33342 6.9527 9.4527 5.83342 10.8334 5.83342H11.6667C12.127 5.83342 12.5001 6.20651 12.5001 6.66675C12.5001 7.12699 12.127 7.50008 11.6667 7.50008H10.8334C10.3732 7.50008 10.0001 7.87318 10.0001 8.33342V10.0001H11.6667C12.127 10.0001 12.5001 10.3732 12.5001 10.8334C12.5001 11.2937 12.127 11.6667 11.6667 11.6667H10.0001V17.9167Z" fill="#17181B"/>
</svg>
