<svg width="20" height="20" viewBox="0 0 20 20" fill="none" xmlns="http://www.w3.org/2000/svg">
<path d="M10.0001 12.5001C11.3808 12.5001 12.5001 11.3808 12.5001 10.0001C12.5001 8.61937 11.3808 7.50008 10.0001 7.50008C8.61937 7.50008 7.50008 8.61937 7.50008 10.0001C7.50008 11.3808 8.61937 12.5001 10.0001 12.5001Z" fill="#17181B"/>
<path fill-rule="evenodd" clip-rule="evenodd" d="M5.83342 1.66675C3.53223 1.66675 1.66675 3.53223 1.66675 5.83342V14.1667C1.66675 16.4679 3.53223 18.3334 5.83342 18.3334H14.1667C16.4679 18.3334 18.3334 16.4679 18.3334 14.1667V5.83342C18.3334 3.53223 16.4679 1.66675 14.1667 1.66675H5.83342ZM10.0001 14.1667C12.3013 14.1667 14.1667 12.3013 14.1667 10.0001C14.1667 7.6989 12.3013 5.83342 10.0001 5.83342C7.6989 5.83342 5.83342 7.6989 5.83342 10.0001C5.83342 12.3013 7.6989 14.1667 10.0001 14.1667ZM15.8334 5.00008C15.8334 5.46032 15.4603 5.83342 15.0001 5.83342C14.5398 5.83342 14.1667 5.46032 14.1667 5.00008C14.1667 4.53984 14.5398 4.16675 15.0001 4.16675C15.4603 4.16675 15.8334 4.53984 15.8334 5.00008Z" fill="#17181B"/>
</svg>
