<svg width="133" height="40" viewBox="0 0 133 40" fill="none" xmlns="http://www.w3.org/2000/svg">
<path fill-rule="evenodd" clip-rule="evenodd" d="M49.1457 12.1208C49.1457 10.9234 50.0745 9.9541 51.4819 9.9541C52.8611 9.9541 53.79 10.8949 53.79 12.1208C53.79 13.2897 52.8611 14.2591 51.4819 14.2591C50.1027 14.2591 49.1457 13.3182 49.1457 12.1208ZM49.5116 15.599H53.4241V28.5139H49.5116V15.599ZM41.9414 28.7137C38.5356 28.7137 36.2556 26.8035 36.0586 24.2947H39.9429C40.0274 25.207 40.8437 25.8057 41.9133 25.8057C42.9266 25.8057 43.4332 25.3495 43.4332 24.7508C43.4332 23.9225 42.3319 23.6632 41.0059 23.351C39.0003 22.8788 36.4808 22.2857 36.4808 19.4195C36.4808 17.2243 38.3385 15.3996 41.6599 15.3996C44.9532 15.3996 46.7828 17.2528 47.0361 19.7901H43.4332C43.3206 18.9063 42.6451 18.3361 41.5473 18.3361C40.6185 18.3361 40.14 18.7068 40.14 19.334C40.14 20.1457 41.2184 20.4091 42.5275 20.7288C44.5289 21.2175 47.0695 21.838 47.1205 24.7508C47.1205 27.0316 45.1502 28.7137 41.9414 28.7137ZM71.4112 18.8772C72.903 18.8772 73.86 19.818 73.86 21.5001H73.8319V28.5135H77.7162V20.9584C77.7162 17.5087 75.6896 15.4561 72.5371 15.4561C70.6794 15.4561 69.075 16.5109 68.2305 17.8794C67.3861 16.3113 65.8099 15.4561 63.8958 15.4561C62.2351 15.4561 60.9404 16.1688 60.1804 17.2237V15.5986H56.2679V28.5135H60.1804V21.5001C60.1804 19.818 61.1374 18.8772 62.6292 18.8772C64.121 18.8772 65.078 19.818 65.078 21.5001V28.5135H68.9624V21.5001C68.9624 19.818 69.9194 18.8772 71.4112 18.8772ZM88.3551 15.4282C91.4795 15.4282 93.9846 17.9656 93.9846 22.0425C93.9846 26.1193 91.4795 28.7137 88.3551 28.7137C86.4693 28.7137 85.1182 27.8014 84.4145 26.7181V34.7008H80.502V15.5993H84.4145V17.4239C85.1182 16.2835 86.4693 15.4282 88.3551 15.4282ZM87.1729 18.8779C85.7093 18.8779 84.3863 20.0183 84.3863 22.071C84.3863 24.1237 85.7093 25.2641 87.1729 25.2641C88.6647 25.2641 89.9877 24.0952 89.9877 22.0425C89.9877 19.9898 88.6647 18.8779 87.1729 18.8779ZM99.9532 11.3794H96.0407V28.5137H99.9532V11.3794ZM107.637 15.4282C109.523 15.4282 110.874 16.312 111.578 17.4524V15.6278H115.49V28.5427H111.578V26.7181C110.874 27.8584 109.523 28.7422 107.609 28.7422C104.485 28.7422 102.008 26.1479 102.008 22.071C102.008 17.9656 104.485 15.4282 107.637 15.4282ZM108.763 18.8779C107.299 18.8779 105.976 19.9898 105.976 22.0425C105.976 24.0952 107.299 25.2641 108.763 25.2641C110.255 25.2641 111.55 24.1237 111.55 22.071C111.55 19.9898 110.255 18.8779 108.763 18.8779ZM127.087 17.0811C126.327 16.1118 125.033 15.4561 123.372 15.4561C120.191 15.4561 117.517 18.136 117.517 22.0988C117.517 26.0616 120.191 28.713 123.316 28.713C125.005 28.713 126.271 27.9433 127.087 26.9169V34.7001H131V15.5986H127.087V17.0811ZM121.514 22.0703C121.514 19.9036 123.006 18.8772 124.301 18.8772C125.624 18.8772 127.087 19.8751 127.087 22.0418C127.087 24.2085 125.624 25.2349 124.301 25.2349C123.006 25.2349 121.514 24.237 121.514 22.0703Z" fill="#17181B"/>
<path d="M16.5887 9.05771L18.6164 11.1067L15.265 14.4933L13.2372 12.4443L16.5887 9.05771ZM9.20985 8.3747L11.2376 10.4237L14.5891 7.03715L12.5613 4.98814L9.20985 8.3747ZM10.3082 19.4735L12.336 21.5225L17.2928 16.5138L15.265 14.4648L10.3082 19.4735ZM6.28085 15.404L8.30862 17.453L13.2654 12.4443L11.2376 10.3953L6.28085 15.404ZM18.5883 11.0783L20.6161 13.1273L25.5728 8.11858L23.5451 6.06956L18.5883 11.0783ZM22.503 15.2617L24.5308 17.3107L29.4875 12.302L27.4598 10.253L22.503 15.2617ZM14.5609 7.0087L16.5887 9.05771L21.5454 4.04901L19.5177 2L14.5609 7.0087ZM15.0115 30.9708L12.9838 28.9217L16.3352 25.5352L18.363 27.5842L15.0115 30.9708ZM22.3904 31.6538L20.3626 29.6047L17.0111 32.9913L19.0389 35.0403L22.3904 31.6538ZM21.292 20.5549L19.2642 18.5059L14.3356 23.5146L16.3634 25.5636L21.292 20.5549ZM25.3194 24.6245L23.2916 22.5755L18.3348 27.5842L20.3626 29.6332L25.3194 24.6245ZM12.9838 28.9217L10.956 26.8727L5.99921 31.8814L8.02698 33.9304L12.9838 28.9217ZM8.98454 24.8806L6.95677 22.8316L2 27.8403L4.02777 29.8893L8.98454 24.8806ZM17.0111 32.9913L14.9834 30.9423L10.0266 35.951L12.0544 38L17.0111 32.9913Z" fill="url(#paint0_radial_2_7112)"/>
<defs>
<radialGradient id="paint0_radial_2_7112" cx="0" cy="0" r="1" gradientUnits="userSpaceOnUse" gradientTransform="translate(3.78669 35.9718) rotate(-52.8912) scale(42.5984 45.6927)">
<stop stop-color="#F18C53"/>
<stop offset="1" stop-color="#E83A64"/>
</radialGradient>
</defs>
</svg>
