<svg width="20" height="20" viewBox="0 0 20 20" fill="none" xmlns="http://www.w3.org/2000/svg">
<path d="M17.4999 6.25C17.9166 12.5 13.3333 17.5 7.49992 17.5C5.58531 17.5 3.6707 17.2556 2.1304 16.5797C1.6904 16.3866 1.85317 15.8154 2.33205 15.7758C4.162 15.6245 5.67598 15.1573 6.66658 14.1667C2.24077 12.6914 1.40606 7.29855 2.13964 4.34557C2.24226 3.93244 2.77218 3.92756 2.99643 4.28938C4.40387 6.56019 6.99316 7.81835 10.2204 7.51997C10.0777 7.12337 9.99992 6.69577 9.99992 6.25C9.99992 4.17893 11.6789 2.5 13.7499 2.5C15.0151 2.5 16.1339 3.12652 16.8131 4.08622L18.0595 3.90815C18.4874 3.84703 18.786 4.32087 18.5463 4.68048L17.4999 6.25Z" fill="#17181B"/>
</svg>
