<svg width="20" height="20" viewBox="0 0 20 20" fill="none" xmlns="http://www.w3.org/2000/svg">
<path fill-rule="evenodd" clip-rule="evenodd" d="M3.07355 3.53831C1.5175 3.63466 0.291778 4.85064 0.170615 6.40495C0.0804294 7.56187 0 8.90154 0 9.99992C0 11.0983 0.0804294 12.438 0.170615 13.5949C0.291778 15.1492 1.5175 16.3652 3.07355 16.4615C4.73785 16.5646 7.11394 16.6666 10 16.6666C12.8861 16.6666 15.2622 16.5646 16.9265 16.4615C18.4825 16.3652 19.7082 15.1492 19.8294 13.5949C19.9196 12.438 20 11.0983 20 9.99992C20 8.90154 19.9196 7.56187 19.8294 6.40495C19.7082 4.85064 18.4825 3.63466 16.9265 3.53831C15.2622 3.43524 12.8861 3.33325 10 3.33325C7.11394 3.33325 4.73785 3.43524 3.07355 3.53831ZM12.2933 9.30643L9.62895 7.53019C9.07516 7.161 8.33337 7.55799 8.33337 8.22357V11.776C8.33337 12.4416 9.07516 12.8386 9.62895 12.4694L12.2933 10.6932C12.7881 10.3633 12.7881 9.63628 12.2933 9.30643Z" fill="#17181B"/>
</svg>
