<svg width="129" height="36" viewBox="0 0 129 36" fill="none" xmlns="http://www.w3.org/2000/svg">
<path fill-rule="evenodd" clip-rule="evenodd" d="M47.1457 10.1208C47.1457 8.92343 48.0745 7.9541 49.4819 7.9541C50.8611 7.9541 51.79 8.89492 51.79 10.1208C51.79 11.2897 50.8611 12.2591 49.4819 12.2591C48.1027 12.2591 47.1457 11.3182 47.1457 10.1208ZM47.5116 13.599H51.4241V26.5139H47.5116V13.599ZM39.9414 26.7137C36.5356 26.7137 34.2556 24.8035 34.0586 22.2947H37.9429C38.0274 23.207 38.8437 23.8057 39.9133 23.8057C40.9266 23.8057 41.4332 23.3495 41.4332 22.7508C41.4332 21.9225 40.3319 21.6632 39.0059 21.351C37.0003 20.8788 34.4808 20.2857 34.4808 17.4195C34.4808 15.2243 36.3385 13.3996 39.6599 13.3996C42.9532 13.3996 44.7828 15.2528 45.0361 17.7901H41.4332C41.3206 16.9063 40.6451 16.3361 39.5473 16.3361C38.6185 16.3361 38.14 16.7068 38.14 17.334C38.14 18.1457 39.2184 18.4091 40.5275 18.7288C42.5289 19.2175 45.0695 19.838 45.1205 22.7508C45.1205 25.0316 43.1502 26.7137 39.9414 26.7137ZM69.4112 16.8772C70.903 16.8772 71.86 17.818 71.86 19.5001H71.8319V26.5135H75.7162V18.9584C75.7162 15.5087 73.6896 13.4561 70.5371 13.4561C68.6794 13.4561 67.075 14.5109 66.2305 15.8794C65.3861 14.3113 63.8099 13.4561 61.8958 13.4561C60.2351 13.4561 58.9404 14.1688 58.1804 15.2237V13.5986H54.2679V26.5135H58.1804V19.5001C58.1804 17.818 59.1374 16.8772 60.6292 16.8772C62.121 16.8772 63.078 17.818 63.078 19.5001V26.5135H66.9624V19.5001C66.9624 17.818 67.9194 16.8772 69.4112 16.8772ZM86.3551 13.4282C89.4795 13.4282 91.9846 15.9656 91.9846 20.0425C91.9846 24.1194 89.4795 26.7137 86.3551 26.7137C84.4693 26.7137 83.1182 25.8014 82.4145 24.7181V32.7008H78.502V13.5993H82.4145V15.4239C83.1182 14.2835 84.4693 13.4282 86.3551 13.4282ZM85.1729 16.8779C83.7093 16.8779 82.3863 18.0183 82.3863 20.071C82.3863 22.1237 83.7093 23.2641 85.1729 23.2641C86.6647 23.2641 87.9877 22.0952 87.9877 20.0425C87.9877 17.9898 86.6647 16.8779 85.1729 16.8779ZM97.9532 9.37939H94.0407V26.5137H97.9532V9.37939ZM105.637 13.4282C107.523 13.4282 108.874 14.312 109.578 15.4524V13.6278H113.49V26.5427H109.578V24.7181C108.874 25.8584 107.523 26.7422 105.609 26.7422C102.485 26.7422 100.008 24.1479 100.008 20.071C100.008 15.9656 102.485 13.4282 105.637 13.4282ZM106.763 16.8779C105.299 16.8779 103.976 17.9898 103.976 20.0425C103.976 22.0952 105.299 23.2641 106.763 23.2641C108.255 23.2641 109.55 22.1237 109.55 20.071C109.55 17.9898 108.255 16.8779 106.763 16.8779ZM125.087 15.0811C124.327 14.1118 123.033 13.4561 121.372 13.4561C118.191 13.4561 115.517 16.136 115.517 20.0988C115.517 24.0616 118.191 26.713 121.316 26.713C123.005 26.713 124.271 25.9433 125.087 24.9169V32.7001H129V13.5986H125.087V15.0811ZM119.514 20.0703C119.514 17.9036 121.006 16.8772 122.301 16.8772C123.624 16.8772 125.087 17.8751 125.087 20.0418C125.087 22.2085 123.624 23.2349 122.301 23.2349C121.006 23.2349 119.514 22.237 119.514 20.0703Z" fill="white"/>
<path d="M14.5887 7.05771L16.6164 9.10672L13.265 12.4933L11.2372 10.4443L14.5887 7.05771ZM7.20985 6.3747L9.23762 8.42372L12.5891 5.03715L10.5613 2.98814L7.20985 6.3747ZM8.30822 17.4735L10.336 19.5225L15.2928 14.5138L13.265 12.4648L8.30822 17.4735ZM4.28085 13.404L6.30862 15.453L11.2654 10.4443L9.23762 8.39526L4.28085 13.404ZM16.5883 9.07826L18.6161 11.1273L23.5728 6.11858L21.5451 4.06956L16.5883 9.07826ZM20.503 13.2617L22.5308 15.3107L27.4875 10.302L25.4598 8.25296L20.503 13.2617ZM12.5609 5.0087L14.5887 7.05771L19.5454 2.04901L17.5177 0L12.5609 5.0087ZM13.0115 28.9708L10.9838 26.9217L14.3352 23.5352L16.363 25.5842L13.0115 28.9708ZM20.3904 29.6538L18.3626 27.6047L15.0111 30.9913L17.0389 33.0403L20.3904 29.6538ZM19.292 18.5549L17.2642 16.5059L12.3356 21.5146L14.3634 23.5636L19.292 18.5549ZM23.3194 22.6245L21.2916 20.5755L16.3348 25.5842L18.3626 27.6332L23.3194 22.6245ZM10.9838 26.9217L8.95598 24.8727L3.99921 29.8814L6.02698 31.9304L10.9838 26.9217ZM6.98454 22.8806L4.95677 20.8316L0 25.8403L2.02777 27.8893L6.98454 22.8806ZM15.0111 30.9913L12.9834 28.9423L8.02659 33.951L10.0544 36L15.0111 30.9913Z" fill="url(#paint0_radial_1710_1602)"/>
<defs>
<radialGradient id="paint0_radial_1710_1602" cx="0" cy="0" r="1" gradientUnits="userSpaceOnUse" gradientTransform="translate(1.78669 33.9718) rotate(-52.8912) scale(42.5984 45.6927)">
<stop stop-color="#F18C53"/>
<stop offset="1" stop-color="#E83A64"/>
</radialGradient>
</defs>
</svg>
