<svg width="28" height="36" viewBox="0 0 28 36" fill="none" xmlns="http://www.w3.org/2000/svg">
<path d="M14.5887 7.05771L16.6164 9.10672L13.265 12.4933L11.2372 10.4443L14.5887 7.05771ZM7.20985 6.3747L9.23762 8.42372L12.5891 5.03715L10.5613 2.98814L7.20985 6.3747ZM8.30822 17.4735L10.336 19.5225L15.2928 14.5138L13.265 12.4648L8.30822 17.4735ZM4.28085 13.404L6.30862 15.453L11.2654 10.4443L9.23762 8.39526L4.28085 13.404ZM16.5883 9.07826L18.6161 11.1273L23.5728 6.11858L21.5451 4.06956L16.5883 9.07826ZM20.503 13.2617L22.5308 15.3107L27.4875 10.302L25.4598 8.25296L20.503 13.2617ZM12.5609 5.0087L14.5887 7.05771L19.5454 2.04901L17.5177 0L12.5609 5.0087ZM13.0115 28.9708L10.9838 26.9217L14.3352 23.5352L16.363 25.5842L13.0115 28.9708ZM20.3904 29.6538L18.3626 27.6047L15.0111 30.9913L17.0389 33.0403L20.3904 29.6538ZM19.292 18.5549L17.2642 16.5059L12.3356 21.5146L14.3634 23.5636L19.292 18.5549ZM23.3194 22.6245L21.2916 20.5755L16.3348 25.5842L18.3626 27.6332L23.3194 22.6245ZM10.9838 26.9217L8.95598 24.8727L3.99921 29.8814L6.02698 31.9304L10.9838 26.9217ZM6.98454 22.8806L4.95677 20.8316L0 25.8403L2.02777 27.8893L6.98454 22.8806ZM15.0111 30.9913L12.9834 28.9423L8.02659 33.951L10.0544 36L15.0111 30.9913Z" fill="url(#paint0_radial_1710_1670)"/>
<defs>
<radialGradient id="paint0_radial_1710_1670" cx="0" cy="0" r="1" gradientUnits="userSpaceOnUse" gradientTransform="translate(1.78669 33.9718) rotate(-52.8912) scale(42.5984 45.6927)">
<stop stop-color="#F18C53"/>
<stop offset="1" stop-color="#E83A64"/>
</radialGradient>
</defs>
</svg>
