<svg width="48" height="48" viewBox="0 0 48 48" fill="none" xmlns="http://www.w3.org/2000/svg">
<rect width="48" height="48" rx="24" fill="#F9FAFB"/>
<path d="M22.3333 15.7498C21.9191 15.7498 21.5833 16.0856 21.5833 16.4998C21.5833 16.9141 21.9191 17.2498 22.3333 17.2498V15.7498ZM25.6667 17.2498C26.0809 17.2498 26.4167 16.9141 26.4167 16.4998C26.4167 16.0856 26.0809 15.7498 25.6667 15.7498V17.2498ZM20.6667 16.4165H27.3333V14.9165H20.6667V16.4165ZM28.25 17.3332V30.6665H29.75V17.3332H28.25ZM27.3333 31.5832H20.6667V33.0832H27.3333V31.5832ZM19.75 30.6665V17.3332H18.25V30.6665H19.75ZM20.6667 31.5832C20.1604 31.5832 19.75 31.1728 19.75 30.6665H18.25C18.25 32.0012 19.332 33.0832 20.6667 33.0832V31.5832ZM28.25 30.6665C28.25 31.1728 27.8396 31.5832 27.3333 31.5832V33.0832C28.668 33.0832 29.75 32.0012 29.75 30.6665H28.25ZM27.3333 16.4165C27.8396 16.4165 28.25 16.8269 28.25 17.3332H29.75C29.75 15.9985 28.668 14.9165 27.3333 14.9165V16.4165ZM20.6667 14.9165C19.332 14.9165 18.25 15.9985 18.25 17.3332H19.75C19.75 16.8269 20.1604 16.4165 20.6667 16.4165V14.9165ZM22.3333 17.2498H25.6667V15.7498H22.3333V17.2498Z" fill="#17181B"/>
</svg>
