<svg width="24" height="25" viewBox="0 0 24 25" fill="none" xmlns="http://www.w3.org/2000/svg">
<path d="M18.4699 16.9284L18.8599 20.0884C18.9599 20.9184 18.0699 21.4984 17.3599 21.0684L13.8999 19.0084C13.6599 18.8684 13.5999 18.5684 13.7299 18.3284C14.2299 17.4084 14.4999 16.3684 14.4999 15.3284C14.4999 11.6684 11.3599 8.68839 7.49989 8.68839C6.70989 8.68839 5.93989 8.80839 5.21989 9.04839C4.84989 9.16839 4.48989 8.82839 4.57989 8.44839C5.48989 4.80839 8.98989 2.09839 13.1699 2.09839C18.0499 2.09839 21.9999 5.78839 21.9999 10.3384C21.9999 13.0384 20.6099 15.4284 18.4699 16.9284Z" fill="white"/>
<path d="M13 15.3284C13 16.5184 12.56 17.6184 11.82 18.4884C10.83 19.6884 9.26 20.4584 7.5 20.4584L4.89 22.0084C4.45 22.2784 3.89 21.9084 3.95 21.3984L4.2 19.4284C2.86 18.4984 2 17.0084 2 15.3284C2 13.5684 2.94 12.0184 4.38 11.0984C5.27 10.5184 6.34 10.1884 7.5 10.1884C10.54 10.1884 13 12.4884 13 15.3284Z" fill="white"/>
</svg>
