<svg width="20" height="20" viewBox="0 0 20 20" fill="none" xmlns="http://www.w3.org/2000/svg">
<path d="M17.5667 7.14999V12.85C17.5667 13.7833 17.0667 14.65 16.2584 15.125L11.3084 17.9833C10.5 18.45 9.50005 18.45 8.68338 17.9833L3.73338 15.125C2.92505 14.6583 2.42505 13.7916 2.42505 12.85V7.14999C2.42505 6.21665 2.92505 5.34995 3.73338 4.87495L8.68338 2.01663C9.49172 1.54996 10.4917 1.54996 11.3084 2.01663L16.2584 4.87495C17.0667 5.34995 17.5667 6.20832 17.5667 7.14999Z" stroke="#17181B" stroke-width="1.5" stroke-linecap="round" stroke-linejoin="round"/>
<path d="M10 9.16664C11.0724 9.16664 11.9417 8.29731 11.9417 7.22496C11.9417 6.1526 11.0724 5.28333 10 5.28333C8.92766 5.28333 8.05835 6.1526 8.05835 7.22496C8.05835 8.29731 8.92766 9.16664 10 9.16664Z" stroke="#17181B" stroke-width="1.5" stroke-linecap="round" stroke-linejoin="round"/>
<path d="M13.3334 13.8834C13.3334 12.3834 11.8417 11.1667 10.0001 11.1667C8.15841 11.1667 6.66675 12.3834 6.66675 13.8834" stroke="#17181B" stroke-width="1.5" stroke-linecap="round" stroke-linejoin="round"/>
</svg>
