<svg width="20" height="21" viewBox="0 0 20 21" fill="none" xmlns="http://www.w3.org/2000/svg">
<path d="M10.0001 18.0151C10.0001 18.2453 10.1869 18.4329 10.4167 18.4216C14.8255 18.2045 18.3334 14.5611 18.3334 10.0985C18.3334 5.4961 14.6025 1.76514 10.0001 1.76514C5.39771 1.76514 1.66675 5.4961 1.66675 10.0985C1.66675 13.9527 4.28332 17.1958 7.83702 18.1483C8.09147 18.2165 8.33342 18.0188 8.33342 17.7554V11.7651H7.50008C7.03984 11.7651 6.66675 11.392 6.66675 10.9318C6.66675 10.4716 7.03984 10.0985 7.50008 10.0985H8.33342V8.4318C8.33342 7.05109 9.4527 5.9318 10.8334 5.9318H11.6667C12.127 5.9318 12.5001 6.3049 12.5001 6.76514C12.5001 7.22537 12.127 7.59847 11.6667 7.59847H10.8334C10.3732 7.59847 10.0001 7.97157 10.0001 8.4318V10.0985H11.6667C12.127 10.0985 12.5001 10.4716 12.5001 10.9318C12.5001 11.392 12.127 11.7651 11.6667 11.7651H10.0001V18.0151Z" fill="white"/>
</svg>
