<svg width="20" height="21" viewBox="0 0 20 21" fill="none" xmlns="http://www.w3.org/2000/svg">
<path d="M10.0001 12.5985C11.3808 12.5985 12.5001 11.4792 12.5001 10.0985C12.5001 8.71776 11.3808 7.59847 10.0001 7.59847C8.61937 7.59847 7.50008 8.71776 7.50008 10.0985C7.50008 11.4792 8.61937 12.5985 10.0001 12.5985Z" fill="white"/>
<path fill-rule="evenodd" clip-rule="evenodd" d="M5.83342 1.76514C3.53223 1.76514 1.66675 3.63062 1.66675 5.9318V14.2651C1.66675 16.5663 3.53223 18.4318 5.83342 18.4318H14.1667C16.4679 18.4318 18.3334 16.5663 18.3334 14.2651V5.9318C18.3334 3.63062 16.4679 1.76514 14.1667 1.76514H5.83342ZM10.0001 14.2651C12.3013 14.2651 14.1667 12.3997 14.1667 10.0985C14.1667 7.79728 12.3013 5.9318 10.0001 5.9318C7.6989 5.9318 5.83342 7.79728 5.83342 10.0985C5.83342 12.3997 7.6989 14.2651 10.0001 14.2651ZM15.8334 5.09847C15.8334 5.55871 15.4603 5.9318 15.0001 5.9318C14.5398 5.9318 14.1667 5.55871 14.1667 5.09847C14.1667 4.63823 14.5398 4.26514 15.0001 4.26514C15.4603 4.26514 15.8334 4.63823 15.8334 5.09847Z" fill="white"/>
</svg>
