<svg width="20" height="21" viewBox="0 0 20 21" fill="none" xmlns="http://www.w3.org/2000/svg">
<path d="M17.4999 6.34839C17.9166 12.5984 13.3333 17.5984 7.49992 17.5984C5.58531 17.5984 3.6707 17.354 2.1304 16.6781C1.6904 16.485 1.85317 15.9138 2.33205 15.8742C4.162 15.7229 5.67598 15.2557 6.66658 14.2651C2.24077 12.7898 1.40606 7.39694 2.13964 4.44396C2.24226 4.03083 2.77218 4.02595 2.99643 4.38777C4.40387 6.65858 6.99316 7.91674 10.2204 7.61836C10.0777 7.22176 9.99992 6.79416 9.99992 6.34839C9.99992 4.27732 11.6789 2.59839 13.7499 2.59839C15.0151 2.59839 16.1339 3.22491 16.8131 4.18461L18.0595 4.00654C18.4874 3.94542 18.786 4.41926 18.5463 4.77886L17.4999 6.34839Z" fill="white"/>
</svg>
