<svg width="20" height="21" viewBox="0 0 20 21" fill="none" xmlns="http://www.w3.org/2000/svg">
<path fill-rule="evenodd" clip-rule="evenodd" d="M3.07355 3.63669C1.5175 3.73305 0.291778 4.94903 0.170615 6.50334C0.0804294 7.66026 0 8.99993 0 10.0983C0 11.1967 0.0804294 12.5364 0.170615 13.6933C0.291778 15.2476 1.5175 16.4636 3.07355 16.5599C4.73785 16.663 7.11394 16.765 10 16.765C12.8861 16.765 15.2622 16.663 16.9265 16.5599C18.4825 16.4636 19.7082 15.2476 19.8294 13.6933C19.9196 12.5364 20 11.1967 20 10.0983C20 8.99993 19.9196 7.66026 19.8294 6.50334C19.7082 4.94903 18.4825 3.73305 16.9265 3.63669C15.2622 3.53363 12.8861 3.43164 10 3.43164C7.11394 3.43164 4.73785 3.53363 3.07355 3.63669ZM12.2933 9.40482L9.62895 7.62858C9.07516 7.25939 8.33337 7.65638 8.33337 8.32196V11.8744C8.33337 12.54 9.07516 12.937 9.62895 12.5678L12.2933 10.7916C12.7881 10.4617 12.7881 9.73467 12.2933 9.40482Z" fill="white"/>
</svg>
